<svg xmlns="http://www.w3.org/2000/svg" version="1.1" xmlns:xlink="http://www.w3.org/1999/xlink" xmlns:svgjs="http://svgjs.dev/svgjs" width="1000" height="282" viewBox="0 0 1000 282"><g transform="matrix(1,0,0,1,-0.36766103614735357,0.4930297719459418)"><svg viewBox="0 0 347 98" data-background-color="#1d2f39" preserveAspectRatio="xMidYMid meet" height="282" width="1000" xmlns="http://www.w3.org/2000/svg" xmlns:xlink="http://www.w3.org/1999/xlink"><g id="tight-bounds" transform="matrix(1,0,0,1,0.127578379543138,-0.17133658741383329)"><svg viewBox="0 0 346.7448432409137 98.34267317482767" height="98.34267317482767" width="346.7448432409137"><g><svg viewBox="0 0 346.7448432409137 98.34267317482767" height="98.34267317482767" width="346.7448432409137"><g><svg viewBox="0 0 346.7448432409137 98.34267317482767" height="98.34267317482767" width="346.7448432409137"><g id="textblocktransform"><svg viewBox="0 0 346.7448432409137 98.34267317482767" height="98.34267317482767" width="346.7448432409137" id="textblock"><g><svg viewBox="0 0 346.7448432409137 64.94121093749999" height="64.94121093749999" width="346.7448432409137"><g><svg><g></g><g></g></svg></g><g><svg><g><svg></svg></g><g></g></svg></g><g id="text-0"><svg viewBox="0 0 346.7448432409137 64.94121093749999" height="64.94121093749999" width="346.7448432409137"><g transform="matrix(1,0,0,1,0,12.866113281249994)"><svg width="137.79296874999997" viewBox="0.49 -37.16 137.78 39.209999999999994" height="39.208984375" data-palette-color="#e13f3f"><path d="M25-32.32L25-32.32Q25-30.57 24.56-28.39 24.12-26.22 23.46-23.97 22.8-21.73 22.05-19.6 21.29-17.48 20.7-15.77L20.7-15.77Q20.31-14.7 19.85-13.11 19.38-11.52 18.77-9.77 18.16-8.01 17.43-6.25 16.7-4.49 15.82-3.1 14.94-1.71 13.89-0.83 12.84 0.05 11.62 0.05L11.62 0.05Q10.6 0.05 9.64-0.88 8.69-1.81 7.84-3.25 6.98-4.69 6.23-6.47 5.47-8.25 4.86-9.96 4.25-11.67 3.83-13.13 3.42-14.6 3.22-15.38L3.22-15.38Q2.25-19.19 1.37-23.07 0.49-26.95 0.49-30.86L0.49-30.86Q0.49-31.84 0.59-32.89 0.68-33.94 1.07-34.81 1.46-35.69 2.17-36.25 2.88-36.82 4.15-36.82L4.15-36.82Q5.22-36.82 6.13-35.62 7.03-34.42 7.76-32.52 8.5-30.62 9.11-28.27 9.72-25.93 10.25-23.66 10.79-21.39 11.28-19.41 11.77-17.43 12.26-16.26L12.26-16.26Q12.55-17.24 13.11-19.12 13.67-21 14.43-23.24 15.19-25.49 16.09-27.86 16.99-30.22 17.99-32.15 18.99-34.08 20.07-35.3 21.14-36.52 22.27-36.52L22.27-36.52Q23.1-36.52 23.63-36.13 24.17-35.74 24.46-35.11 24.76-34.47 24.88-33.74 25-33.01 25-32.32ZM42.62-33.15L42.62-33.15Q42.62-32.23 42.21-31.49 41.79-30.76 41.11-30.25 40.43-29.74 39.6-29.39 38.77-29.05 37.99-28.91L37.99-28.91Q37.89-23.39 37.57-18.26 37.25-13.13 36.57-7.67L36.57-7.67 36.86-7.67Q37.64-7.67 38.4-7.5 39.16-7.32 39.77-6.91 40.38-6.49 40.74-5.88 41.11-5.27 41.11-4.39L41.11-4.39Q41.11-3.27 40.4-2.44 39.69-1.61 38.55-1.03 37.4-0.44 35.98-0.05 34.57 0.34 33.15 0.56 31.74 0.78 30.47 0.88 29.2 0.98 28.42 0.98L28.42 0.98Q27.83 0.98 26.98 0.93 26.12 0.88 25.36 0.63 24.61 0.39 24.07-0.1 23.53-0.59 23.53-1.42L23.53-1.42Q23.53-2.44 23.95-3.25 24.36-4.05 25.05-4.69 25.73-5.32 26.58-5.71 27.44-6.1 28.32-6.3L28.32-6.3Q28.66-8.98 28.95-11.65 29.25-14.31 29.34-17.04L29.34-17.04Q29.44-19.82 29.54-22.53 29.64-25.24 29.73-27.98L29.73-27.98Q29.39-27.93 29.1-27.91 28.81-27.88 28.56-27.88L28.56-27.88Q27.88-27.88 27.1-28.03 26.32-28.17 25.63-28.54 24.95-28.91 24.48-29.44 24.02-29.98 24.02-30.81L24.02-30.81Q24.02-32.47 25.41-33.54 26.8-34.62 28.73-35.21 30.66-35.79 32.66-36.01 34.67-36.23 35.89-36.23L35.89-36.23Q36.57-36.23 37.69-36.13 38.82-36.04 39.91-35.69 41.01-35.35 41.82-34.77 42.62-34.18 42.62-33.15ZM67.82-2.15L67.82-2.15Q67.82-0.78 67.13 0.07 66.45 0.93 65.03 0.93L65.03 0.93Q63.91 0.93 62.96 0.24 62.01-0.44 61.2-1.44 60.4-2.44 59.79-3.56 59.17-4.69 58.78-5.52L58.78-5.52Q57.76-7.57 56.76-9.62 55.76-11.67 54.78-13.77L54.78-13.77 51.85-11.96Q51.9-10.55 51.7-9.13 51.51-7.71 51.41-6.3L51.41-6.3Q51.31-5.32 51.09-4.17 50.87-3.03 50.39-2.03 49.9-1.03 49.07-0.34 48.24 0.34 47.02 0.34L47.02 0.34Q45.89 0.34 45.16-0.12 44.43-0.59 43.96-1.32 43.5-2.05 43.31-2.98 43.11-3.91 43.11-4.88L43.11-4.88 43.11-5.27Q43.11-8.15 43.43-11.06 43.75-13.96 43.84-16.89L43.84-16.89Q43.94-20.75 44.09-24.61 44.23-28.47 44.48-32.32L44.48-32.32Q44.53-33.2 44.77-34.03 45.01-34.86 45.5-35.52 45.99-36.18 46.7-36.57 47.41-36.96 48.38-36.96L48.38-36.96Q49.9-36.96 50.65-35.89 51.41-34.81 51.7-33.3 52-31.79 51.97-30.18 51.95-28.56 51.95-27.49L51.95-27.49Q51.95-24.41 51.8-21.34L51.8-21.34Q53.22-22.51 54.56-24.02 55.9-25.54 56.93-27.1L56.93-27.1Q57.56-28.03 58.39-29.66 59.22-31.3 60.2-32.84 61.18-34.38 62.35-35.52 63.52-36.67 64.84-36.67L64.84-36.67Q66.25-36.67 66.91-35.86 67.57-35.06 67.57-33.74L67.57-33.74Q67.57-31.79 66.96-29.74 66.35-27.69 65.33-25.71 64.3-23.73 63.01-21.95 61.71-20.17 60.4-18.85L60.4-18.85Q61.76-16.55 62.98-14.23 64.2-11.91 65.42-9.57L65.42-9.57Q65.86-8.79 66.28-7.86 66.69-6.93 67.04-5.96 67.38-4.98 67.6-4 67.82-3.03 67.82-2.15ZM90.72-33.35L90.72-33.35Q90.72-32.13 89.76-31.13 88.81-30.13 87.47-29.37 86.13-28.61 84.71-28.13 83.29-27.64 82.37-27.44L82.37-27.44Q81.97-23.68 81.76-19.95 81.54-16.21 81.54-12.45L81.54-12.45Q81.54-10.45 81.63-8.5 81.73-6.54 81.73-4.59L81.73-4.59Q81.73-3.71 81.56-2.66 81.39-1.61 80.97-0.68 80.56 0.24 79.83 0.88 79.09 1.51 78.02 1.51L78.02 1.51Q76.75 1.51 75.99 0.81 75.24 0.1 74.82-0.93 74.41-1.95 74.26-3.1 74.11-4.25 74.11-5.18L74.11-5.18Q74.02-8.11 73.97-11.06 73.92-14.01 73.92-16.99L73.92-16.99Q73.92-19.48 73.94-21.88 73.97-24.27 73.97-26.76L73.97-26.76Q73.28-26.66 72.58-26.61 71.87-26.56 71.14-26.56L71.14-26.56Q70.55-26.56 69.6-26.68 68.64-26.81 67.77-27.12 66.89-27.44 66.25-28 65.62-28.56 65.62-29.44L65.62-29.44Q65.62-30.91 66.76-32.01 67.91-33.11 69.69-33.91 71.48-34.72 73.65-35.28 75.82-35.84 77.95-36.16 80.07-36.47 81.85-36.62 83.64-36.77 84.61-36.77L84.61-36.77Q85.54-36.77 86.59-36.69 87.64-36.62 88.57-36.28 89.49-35.94 90.1-35.25 90.72-34.57 90.72-33.35ZM99.36 1.61L99.36 1.61Q96.38 1.61 94.18 0.12 91.98-1.37 90.54-3.88 89.1-6.4 88.39-9.72 87.69-13.04 87.69-16.7L87.69-16.7Q87.69-20.12 88.44-23.63 89.2-27.15 90.76-29.98 92.32-32.81 94.72-34.62 97.11-36.43 100.43-36.43L100.43-36.43Q103.65-36.43 105.82-34.69 108-32.96 109.29-30.2 110.59-27.44 111.15-24.02 111.71-20.61 111.71-17.19L111.71-17.19Q111.71-13.38 110.95-9.99 110.2-6.59 108.66-4 107.12-1.42 104.8 0.1 102.48 1.61 99.36 1.61ZM99.94-25.63L99.94-25.63Q99.01-25.63 98.35-24.9 97.7-24.17 97.26-22.97 96.82-21.78 96.62-20.29 96.43-18.8 96.43-17.29L96.43-17.29Q96.43-15.58 96.65-13.87 96.87-12.16 97.3-10.79 97.74-9.42 98.4-8.59 99.06-7.76 99.99-7.76L99.99-7.76Q101.06-7.76 101.7-8.84 102.33-9.91 102.7-11.43 103.07-12.94 103.19-14.55 103.31-16.16 103.31-17.24L103.31-17.24Q103.31-18.55 103.14-20.02 102.97-21.48 102.58-22.73 102.19-23.97 101.55-24.8 100.92-25.63 99.94-25.63ZM138.27-25.68L138.27-25.68Q138.27-22.31 136.71-19.63 135.14-16.94 132.56-14.89L132.56-14.89Q133.34-13.72 134.17-12.16 135-10.6 135.66-8.86 136.32-7.13 136.73-5.4 137.15-3.66 137.15-2.2L137.15-2.2Q137.15-0.63 136.39 0.61 135.63 1.86 133.83 1.86L133.83 1.86Q132.31 1.86 131.21 0.39 130.11-1.07 129.26-3.1 128.41-5.13 127.7-7.23 126.99-9.33 126.35-10.6L126.35-10.6Q125.48-10.3 124.65-9.94 123.82-9.57 122.94-9.23L122.94-9.23Q122.89-8.15 122.77-6.27 122.64-4.39 122.23-2.54 121.81-0.68 120.98 0.68 120.15 2.05 118.69 2.05L118.69 2.05Q117.08 2.05 116.2 0.73 115.32-0.59 114.95-2.39 114.59-4.2 114.54-6.08 114.49-7.96 114.49-9.03L114.49-9.03Q114.49-11.33 114.59-13.55 114.68-15.77 114.68-18.07L114.68-18.07Q114.68-20.17 114.61-22.27 114.54-24.37 114.54-26.51L114.54-26.51Q114.54-27 114.54-27.76 114.54-28.52 114.61-29.32 114.68-30.13 114.78-30.86 114.88-31.59 115.12-32.03L115.12-32.03Q115.61-33.06 117.35-33.98 119.08-34.91 121.15-35.62 123.23-36.33 125.21-36.74 127.18-37.16 128.16-37.16L128.16-37.16Q130.65-37.16 132.56-36.23 134.46-35.3 135.73-33.72 137-32.13 137.63-30.05 138.27-27.98 138.27-25.68ZM129.24-25L129.24-25Q129.24-26.27 128.65-26.93 128.06-27.59 126.75-27.59L126.75-27.59Q125.77-27.59 124.77-27.25 123.77-26.9 122.94-26.46L122.94-26.46Q123.13-22.61 123.08-18.8L123.08-18.8Q124.11-19.14 125.18-19.68 126.26-20.21 127.16-21 128.06-21.78 128.65-22.75 129.24-23.73 129.24-25Z" opacity="1" transform="matrix(1,0,0,1,0,0)" fill="#e13f3f" class="undefined-lv-0"></path></svg></g><g><svg xmlns="http://www.w3.org/2000/svg" xmlns:xlink="http://www.w3.org/1999/xlink" version="1.1" x="153.12519531249998" y="0" viewBox="5.937999999999996 7.713999999999999 51.213885054995316 47.82208822795164" enable-background="new 0 0 64 64" xml:space="preserve" height="64.94121093749999" width="69.54718699091376" class="icon-z$-0" data-fill-palette-color="accent" id="z$-0"><g fill="#cd2c2c" data-fill-palette-color="accent"><g fill="#cd2c2c" data-fill-palette-color="accent"><path fill-rule="evenodd" clip-rule="evenodd" d="M56.819 9.154c-6.997-0.822-13.866-0.146-19.432-0.932 0.158 0.042 0.241 0.126-0.009 0.212-3.537-0.186-4.089-0.159-6.48 0.24 0.027-0.453 0.793-0.167 0.72-0.72-0.728 0.424-1.752 0.732-2.16-0.24-0.72 0-1.44 0-2.16 0 0.053 0.187 0.201 0.279 0.48 0.24-1.164 0.599-2.453 0.701-1.68-0.24-0.16 0-0.32 0-0.48 0-0.836 0.987-2.808-0.297-3.6 0.96-0.5-0.224-0.457-0.747-1.44-0.96-0.08 0-0.16 0-0.24 0-0.501 0.379-1.262 0.498-2.16 0.48 0-0.16 0-0.32 0-0.48-0.88 0-1.76 0-2.64 0-2.705 1.102-5.679-0.423-8.64 0.72-1.296 1.248-0.024 2.674-0.24 3.84-0.495-0.128-0.058-1.136-0.72-0.48 0 2.4 0 4.8 0 7.2 0.448 8.559 0.339 20.323 0.24 27.36 0.333 0.388 0.68 0.76 0.96 1.2 6.08-0.181 12.988 0.64 20.16-0.24 0.04 0.962 2.663-0.073 3.12 0.24-0.437 1.324 0.51 3.599-0.48 4.8-2.693 0.737-10.853-1.914-9.12 2.88 6.362 0.727 14.07-0.064 19.44-0.24 1.289-0.042 3.383 0.606 3.12-1.439-1.176-1.344-8.291-0.408-10.32-0.721 0-1.92 0-3.84 0-5.76 8.707-0.158 15.505 0.365 23.521 0C57.533 35.465 57.062 21.163 56.819 9.154zM54.899 44.914c-5.151-0.105-9.276-0.326-13.44-0.479-0.427-0.438-2.583 0.291-4.32-0.48 1.853 0.704 0.396-0.042-0.239 0.96-1.09-0.298 0.414-0.697-0.24-1.199-0.281 0.038-0.203 0.438-0.24 0.72-1.911-1.274-1.767-0.276-3.84 0 1.626-1.049-1.832-0.337-2.64 0.24-0.059-1.401-1.172-0.689-1.92-0.48-2.635-0.469-7.184-0.294-10.08 0.48 0.18-0.454 0.716-0.167 0.24-0.721-2.402 0.038-5.382 0.203-8.16 0.24-0.709-12.516-0.12-22.532-0.48-32.16 7.254-0.747 15.696-0.658 23.28-0.72 7.022-0.057 14.363-0.654 22.081 0C54.846 21.609 54.938 33.835 54.899 44.914z" fill="#cd2c2c" data-fill-palette-color="accent"></path><path fill-rule="evenodd" clip-rule="evenodd" d="M33.059 18.514c-1.591 5.61-2.714 11.654-4.08 18 0.388 0.411 1.004 0.596 1.92 0.479 0.323-0.717 0.742-1.338 0.96-2.16 0.342-0.022 0.126-0.77 1.2-1.439-0.254-0.175-0.027-0.722-0.479-1.2 0.24 0 0.479 0 0.72 0-0.42-3.669 3.891-11.535 1.2-13.92C33.934 18.269 33.792 18.688 33.059 18.514z" fill="#cd2c2c" data-fill-palette-color="accent"></path><path fill-rule="evenodd" clip-rule="evenodd" d="M25.619 30.754c-0.704-1.216-2.134-1.706-2.88-2.88 1.545-1.01 4.522-5.098 1.44-5.52-1.83-0.251-1.847 1.614-2.64 2.64-0.956 1.235-2.949 1.948-2.64 3.36 2.047 1.633 2.845 4.515 6.24 4.8 0.14-0.917-0.008-0.751 0.72-1.2C24.96 31.765 25.101 30.532 25.619 30.754z" fill="#cd2c2c" data-fill-palette-color="accent"></path><path fill-rule="evenodd" clip-rule="evenodd" d="M38.339 24.034c1.138 1.503 3.003 2.278 3.84 4.08-0.894 1.666-3.15 1.97-3.12 4.56 0.27 0.051 0.374 0.267 0.48 0.48 3.442-0.356 4.482-1.808 6.479-5.28C44.228 26.163 40.639 19.97 38.339 24.034z" fill="#cd2c2c" data-fill-palette-color="accent"></path></g></g></svg></g><g transform="matrix(1,0,0,1,238.00460886591375,11.401269531249994)"><svg width="108.740234375" viewBox="0.24 -38.09 108.73 39.99" height="39.990234375" data-palette-color="#e13f3f"><path d="M17.43-34.28L17.43-34.28Q17.43-33.15 16.72-32.32 16.02-31.49 15.04-30.96L15.04-30.96Q14.16-30.42 13.23-29.81 12.3-29.2 11.52-28.44 10.74-27.69 10.25-26.76 9.77-25.83 9.77-24.66L9.77-24.66Q9.77-23.63 10.25-22.8 10.74-21.97 11.45-21.17 12.16-20.36 13.01-19.51 13.87-18.65 14.58-17.6 15.28-16.55 15.77-15.23 16.26-13.92 16.26-12.16L16.26-12.16Q16.26-10.94 15.75-9.4 15.23-7.86 14.36-6.3 13.48-4.74 12.28-3.27 11.08-1.81 9.74-0.66 8.4 0.49 6.93 1.2 5.47 1.9 4.1 1.9L4.1 1.9Q2.59 1.9 1.42 1.07 0.24 0.24 0.24-1.42L0.24-1.42Q0.24-2.54 0.78-3.49 1.32-4.44 2.1-5.32 2.88-6.2 3.83-7.03 4.79-7.86 5.57-8.69 6.35-9.52 6.88-10.42 7.42-11.33 7.42-12.35L7.42-12.35Q7.42-13.77 6.42-15.26 5.42-16.75 4.2-18.33 2.98-19.92 1.98-21.58 0.98-23.24 0.98-24.95L0.98-24.95Q0.98-27.05 2.1-29.37 3.22-31.69 4.98-33.62 6.74-35.55 8.94-36.82 11.13-38.09 13.28-38.09L13.28-38.09Q14.99-38.09 16.21-37.06 17.43-36.04 17.43-34.28ZM36.03-33.15L36.03-33.15Q36.03-32.23 35.62-31.49 35.2-30.76 34.52-30.25 33.84-29.74 33.01-29.39 32.18-29.05 31.39-28.91L31.39-28.91Q31.3-23.39 30.98-18.26 30.66-13.13 29.98-7.67L29.98-7.67 30.27-7.67Q31.05-7.67 31.81-7.5 32.57-7.32 33.18-6.91 33.79-6.49 34.15-5.88 34.52-5.27 34.52-4.39L34.52-4.39Q34.52-3.27 33.81-2.44 33.1-1.61 31.96-1.03 30.81-0.44 29.39-0.05 27.98 0.34 26.56 0.56 25.14 0.78 23.87 0.88 22.6 0.98 21.82 0.98L21.82 0.98Q21.24 0.98 20.38 0.93 19.53 0.88 18.77 0.63 18.02 0.39 17.48-0.1 16.94-0.59 16.94-1.42L16.94-1.42Q16.94-2.44 17.36-3.25 17.77-4.05 18.45-4.69 19.14-5.32 19.99-5.71 20.85-6.1 21.73-6.3L21.73-6.3Q22.07-8.98 22.36-11.65 22.65-14.31 22.75-17.04L22.75-17.04Q22.85-19.82 22.95-22.53 23.04-25.24 23.14-27.98L23.14-27.98Q22.8-27.93 22.51-27.91 22.21-27.88 21.97-27.88L21.97-27.88Q21.29-27.88 20.51-28.03 19.72-28.17 19.04-28.54 18.36-28.91 17.89-29.44 17.43-29.98 17.43-30.81L17.43-30.81Q17.43-32.47 18.82-33.54 20.21-34.62 22.14-35.21 24.07-35.79 26.07-36.01 28.07-36.23 29.29-36.23L29.29-36.23Q29.98-36.23 31.1-36.13 32.22-36.04 33.32-35.69 34.42-35.35 35.23-34.77 36.03-34.18 36.03-33.15ZM60.25-32.32L60.25-32.32Q60.25-30.57 59.81-28.39 59.37-26.22 58.71-23.97 58.05-21.73 57.29-19.6 56.54-17.48 55.95-15.77L55.95-15.77Q55.56-14.7 55.1-13.11 54.63-11.52 54.02-9.77 53.41-8.01 52.68-6.25 51.95-4.49 51.07-3.1 50.19-1.71 49.14-0.83 48.09 0.05 46.87 0.05L46.87 0.05Q45.84 0.05 44.89-0.88 43.94-1.81 43.09-3.25 42.23-4.69 41.47-6.47 40.72-8.25 40.11-9.96 39.5-11.67 39.08-13.13 38.67-14.6 38.47-15.38L38.47-15.38Q37.5-19.19 36.62-23.07 35.74-26.95 35.74-30.86L35.74-30.86Q35.74-31.84 35.83-32.89 35.93-33.94 36.32-34.81 36.71-35.69 37.42-36.25 38.13-36.82 39.4-36.82L39.4-36.82Q40.47-36.82 41.38-35.62 42.28-34.42 43.01-32.52 43.75-30.62 44.36-28.27 44.97-25.93 45.5-23.66 46.04-21.39 46.53-19.41 47.02-17.43 47.5-16.26L47.5-16.26Q47.8-17.24 48.36-19.12 48.92-21 49.68-23.24 50.43-25.49 51.34-27.86 52.24-30.22 53.24-32.15 54.24-34.08 55.32-35.3 56.39-36.52 57.51-36.52L57.51-36.52Q58.34-36.52 58.88-36.13 59.42-35.74 59.71-35.11 60-34.47 60.13-33.74 60.25-33.01 60.25-32.32ZM82.27-7.67L82.27-7.67Q82.27-6.74 81.78-5.86L81.78-5.86Q81.29-5.03 79.48-3.91 77.68-2.78 75.48-1.78 73.28-0.78 71.23-0.07 69.18 0.63 68.21 0.63L68.21 0.63Q67.52 0.63 66.59 0.32 65.67 0 64.74-0.49 63.81-0.98 63.05-1.61 62.3-2.25 61.96-2.83L61.96-2.83Q61.76-3.17 61.59-4.2 61.42-5.22 61.3-6.59 61.17-7.96 61.08-9.5 60.98-11.04 60.91-12.43 60.83-13.82 60.81-14.89 60.78-15.97 60.78-16.46L60.78-16.46Q60.78-18.26 60.91-20.61 61.03-22.95 61.37-25.32 61.71-27.69 62.37-29.86 63.03-32.03 64.15-33.54L64.15-33.54Q64.49-33.98 65.52-34.47 66.55-34.96 67.94-35.4 69.33-35.84 70.94-36.23 72.55-36.62 74.04-36.89 75.53-37.16 76.75-37.33 77.97-37.5 78.61-37.5L78.61-37.5Q79.34-37.5 80-37.18 80.66-36.87 81.12-36.33 81.58-35.79 81.85-35.13 82.12-34.47 82.12-33.74L82.12-33.74Q82.12-33.11 81.95-32.67 81.78-32.23 81.44-31.69L81.44-31.69Q80.95-31.05 79.39-30.18 77.82-29.3 75.99-28.44 74.16-27.59 72.48-26.9 70.79-26.22 70.11-25.93L70.11-25.93Q69.91-24.8 69.69-23.66 69.47-22.51 69.38-21.34L69.38-21.34Q70.89-22.12 72.8-22.8 74.7-23.49 76.41-23.49L76.41-23.49Q79.88-23.49 79.88-20.07L79.88-20.07Q79.88-19.24 79.56-18.6 79.24-17.97 78.73-17.48 78.22-16.99 77.56-16.63 76.9-16.26 76.26-15.92L76.26-15.92Q74.7-15.09 72.99-14.48 71.28-13.87 69.57-13.28L69.57-13.28Q69.47-12.89 69.38-12.43 69.28-11.96 69.28-11.52L69.28-11.52Q69.28-10.84 69.38-10.16 69.47-9.47 69.57-8.79L69.57-8.79Q70.16-8.98 71.45-9.42 72.75-9.86 74.16-10.3 75.58-10.74 76.9-11.06 78.22-11.38 78.85-11.38L78.85-11.38Q79.58-11.38 80.22-11.06 80.85-10.74 81.29-10.23 81.73-9.72 82-9.03 82.27-8.35 82.27-7.67ZM108.97-2.15L108.97-2.15Q108.97-0.78 108.29 0.07 107.61 0.93 106.19 0.93L106.19 0.93Q105.07 0.93 104.12 0.24 103.16-0.44 102.36-1.44 101.55-2.44 100.94-3.56 100.33-4.69 99.94-5.52L99.94-5.52Q98.92-7.57 97.91-9.62 96.91-11.67 95.94-13.77L95.94-13.77 93.01-11.96Q93.06-10.55 92.86-9.13 92.67-7.71 92.57-6.3L92.57-6.3Q92.47-5.32 92.25-4.17 92.03-3.03 91.54-2.03 91.05-1.03 90.22-0.34 89.39 0.34 88.17 0.34L88.17 0.34Q87.05 0.34 86.32-0.12 85.59-0.59 85.12-1.32 84.66-2.05 84.46-2.98 84.27-3.91 84.27-4.88L84.27-4.88 84.27-5.27Q84.27-8.15 84.58-11.06 84.9-13.96 85-16.89L85-16.89Q85.1-20.75 85.24-24.61 85.39-28.47 85.63-32.32L85.63-32.32Q85.68-33.2 85.93-34.03 86.17-34.86 86.66-35.52 87.15-36.18 87.86-36.57 88.56-36.96 89.54-36.96L89.54-36.96Q91.05-36.96 91.81-35.89 92.57-34.81 92.86-33.3 93.15-31.79 93.13-30.18 93.11-28.56 93.11-27.49L93.11-27.49Q93.11-24.41 92.96-21.34L92.96-21.34Q94.37-22.51 95.72-24.02 97.06-25.54 98.09-27.1L98.09-27.1Q98.72-28.03 99.55-29.66 100.38-31.3 101.36-32.84 102.33-34.38 103.51-35.52 104.68-36.67 106-36.67L106-36.67Q107.41-36.67 108.07-35.86 108.73-35.06 108.73-33.74L108.73-33.74Q108.73-31.79 108.12-29.74 107.51-27.69 106.48-25.71 105.46-23.73 104.16-21.95 102.87-20.17 101.55-18.85L101.55-18.85Q102.92-16.55 104.14-14.23 105.36-11.91 106.58-9.57L106.58-9.57Q107.02-8.79 107.44-7.86 107.85-6.93 108.19-5.96 108.53-4.98 108.75-4 108.97-3.03 108.97-2.15Z" opacity="1" transform="matrix(1,0,0,1,0,0)" fill="#e13f3f" class="undefined-lv-1"></path></svg></g></svg></g></svg></g><g transform="matrix(1,0,0,1,66.22826505901452,74.1975111328125)"><svg viewBox="0 0 214.2883131228847 24.145162042015176" height="24.145162042015176" width="214.2883131228847"><g transform="matrix(1,0,0,1,0,0)"><svg width="214.2883131228847" viewBox="0 -50 443.73 50" height="24.145162042015176" data-palette-color="#e7dbdb"><path d="M31.25-6.25L0-6.25 0-50 31.25-50 31.25-43.75 37.5-43.75 37.5-37.5 43.75-37.5 43.75-18.75 37.5-18.75 37.5-12.5 31.25-12.5 31.25-6.25ZM12.5-43.75L12.5-12.5 25-12.5 25-18.75 31.25-18.75 31.25-37.5 25-37.5 25-43.75 12.5-43.75ZM87.5-6.25L56.25-6.25 56.25-12.5 50-12.5 50-31.25 56.25-31.25 56.25-37.5 87.5-37.5 87.5-31.25 93.75-31.25 93.75-18.75 62.5-18.75 62.5-12.5 87.5-12.5 87.5-6.25ZM62.5-31.25L62.5-25 81.25-25 81.25-31.25 62.5-31.25ZM131.25-6.25L118.75-6.25 118.75-12.5 112.5-12.5 112.5-18.75 106.25-18.75 106.25-37.5 118.75-37.5 118.75-18.75 131.25-18.75 131.25-37.5 143.75-37.5 143.75-18.75 137.5-18.75 137.5-12.5 131.25-12.5 131.25-6.25ZM187.49-6.25L156.24-6.25 156.24-12.5 149.99-12.5 149.99-31.25 156.24-31.25 156.24-37.5 187.49-37.5 187.49-31.25 193.74-31.25 193.74-18.75 162.49-18.75 162.49-12.5 187.49-12.5 187.49-6.25ZM162.49-31.25L162.49-25 181.24-25 181.24-31.25 162.49-31.25ZM243.74-6.25L206.24-6.25 206.24-12.5 218.74-12.5 218.74-43.75 212.49-43.75 212.49-50 231.24-50 231.24-12.5 243.74-12.5 243.74-6.25ZM287.49-6.25L256.24-6.25 256.24-12.5 249.99-12.5 249.99-31.25 256.24-31.25 256.24-37.5 287.49-37.5 287.49-31.25 293.74-31.25 293.74-12.5 287.49-12.5 287.49-6.25ZM262.49-31.25L262.49-12.5 281.24-12.5 281.24-31.25 262.49-31.25ZM312.49 0L299.99 0 299.99-37.5 337.49-37.5 337.49-31.25 343.74-31.25 343.74-18.75 337.49-18.75 337.49-12.5 312.49-12.5 312.49 0ZM312.49-31.25L312.49-18.75 331.24-18.75 331.24-31.25 312.49-31.25ZM387.48-6.25L356.23-6.25 356.23-12.5 349.98-12.5 349.98-31.25 356.23-31.25 356.23-37.5 387.48-37.5 387.48-31.25 393.73-31.25 393.73-18.75 362.48-18.75 362.48-12.5 387.48-12.5 387.48-6.25ZM362.48-31.25L362.48-25 381.23-25 381.23-31.25 362.48-31.25ZM418.73-37.5L418.73-31.25 424.98-31.25 424.98-25 418.73-25 418.73-6.25 406.23-6.25 406.23-37.5 418.73-37.5ZM424.98-37.5L443.73-37.5 443.73-31.25 424.98-31.25 424.98-37.5Z" opacity="1" transform="matrix(1,0,0,1,0,0)" fill="#e7dbdb" class="slogan-text-1" data-fill-palette-color="secondary" id="text-1"></path></svg></g></svg></g></svg></g></svg></g></svg></g><defs></defs></svg><rect width="346.7448432409137" height="98.34267317482767" fill="none" stroke="none" visibility="hidden"></rect></g></svg></g></svg>